# xmcd CD database file
#
# Track frame offsets:
#	150
#	25603
#	49795
#	74573
#	96483
#	121633
#	143290
#	167935
#	194410
#	220043
#	243180
#	266893
#
# Disc length: 3897 seconds
#
# Revision: 1
# Processed by: cddbd v1.5.2PL0 Copyright (c) Steve Scherf et al.
# Submitted via: CDex 1.70beta2
#
DISCID=a80f370c
DTITLE=BLACKQP'67 - HOT CHASE
DYEAR=2009
DGENRE=Jazz
TTITLE0=ONE TWO PUNCH
TTITLE1=HOT CHASE
TTITLE2=LUNES FELIZ
TTITLE3=MODS 2009
TTITLE4=SECRET RENDEZVOUS
TTITLE5=LOU'S STEP
TTITLE6=SWEET AND BITTER OF LIFE
TTITLE7=MUCHOUS GRACIAS
TTITLE8=KINSHACHI BOOGALOO
TTITLE9=SHAKE FIVE
TTITLE10=WALZ FOR U
TTITLE11=RECADO BOSSA NOVA
EXTD=YEAR: 2009
EXTT0=
EXTT1=
EXTT2=
EXTT3=
EXTT4=
EXTT5=
EXTT6=
EXTT7=
EXTT8=
EXTT9=
EXTT10=
EXTT11=
PLAYORDER=
